# xmcd
#
# Track frame offsets: 
#        150
#        11667
#        25524
#        37969
#        51043
#        62266
#        75062
#        87295
#        99481
#        109023
#        121725
#        136250
#        149380
#        162549
#        175925
#        189890
#        201684
#        213341
#        226520
#        238939
#        253154
#        265582
#        279793
#        292899
#        306390
#
# Disc length: 4244 seconds
#
# Revision: 4
# Processed by: cddbd v1.5.2PL0 Copyright (c) Steve Scherf et al.
# Submitted via: ExactAudioCopy v1.0b3
#
DISCID=46109219
DTITLE=Various Artist - Music Inspired By Oh! Brother, Where Art Thou? [Disc 
DTITLE=2]
DYEAR=2007
DGENRE=Bluegrass
TTITLE0=Monroe, Bill And His Bluegrass Boys - Orange Blossom Special
TTITLE1=Leadbelly - Where Did You Sleep Last Night?
TTITLE2=Carter Family, The - Worried Man Blues
TTITLE3=Rodgers, Jimmie - Frankie And Johnny
TTITLE4=Guthrie, Woody with Sonny Terry and Leadbelly - Bury Me Beneat
TTITLE4=h The Willow
TTITLE5=Acuff, Roy - Lonesome Old River Blues
TTITLE6=Delmore Brothers, The - You Can't Do Wrong And Get By
TTITLE7=Wills, Bob And His Texas Playboys - Cotton-Eyed Joe
TTITLE8=Travis, Merle - Nine Pound Hammer
TTITLE9=Wills, Johnny Lee And His Boys - Milk Cow Blues
TTITLE10=Blue Sky Boys, The - Row Us Over The Tide
TTITLE11=Autry, Gene and Jimmy Long - The Yellow Rose Of Texas
TTITLE12=Carter Family, The - John Hardy Was A Desperate Little Man
TTITLE13=Carter, Buster and Preston Young - I'll Roll In My Sweet Baby
TTITLE13='s Arms
TTITLE14=Rodgers, Jimmie - I'm Free From The Chain Gang Now
TTITLE15=Acuff, Roy - Freight Train Blues
TTITLE16=Monroe, Bill And His Bluegrass Boys - Rock Road Blues
TTITLE17=Delmore Brothers, The - Rounder's Blues
TTITLE18=Blue Sky Boys, The - Garden In The Sky
TTITLE19=Marc Williams, Marc - The Little Old Sod Shanty On My Claim
TTITLE20=Robison, Carson And His Pioneers - Goin' To The Barn Dance To
TTITLE20=night
TTITLE21=Dalhart, Vernon - The Wreck Of The Old '97
TTITLE22=Carter Familiy, The - Rambling Boy
TTITLE23=Guthrie, Woody - House Of The Rising Sun
TTITLE24=Leadbelly  - Goodnight Irene
EXTD=
EXTT0=
EXTT1=
EXTT2=
EXTT3=
EXTT4=
EXTT5=
EXTT6=
EXTT7=
EXTT8=
EXTT9=
EXTT10=
EXTT11=
EXTT12=
EXTT13=
EXTT14=
EXTT15=
EXTT16=
EXTT17=
EXTT18=
EXTT19=
EXTT20=
EXTT21=
EXTT22=
EXTT23=
EXTT24=
PLAYORDER=
